# AST/ASF file generated using VICON BodyLanguage
# -----------------------------------------------
:version 1.10
:name VICON
:units
  mass 1.0
  length 0.45
  angle deg
:documentation
   .ast/.asf automatically generated from VICON data using
   VICON BodyBuilder and BodyLanguage model FoxedUp or BRILLIANT.MOD
:root
   order TX TY TZ RX RY RZ
   axis XYZ
   position 0 0 0  
   orientation 0 -0 0 
:bonedata
  begin
     id 1 
     name lhipjoint
     direction 0.432694 -0.693742 0.575759 
     length 2.19277 
     axis 0 -0 0  XYZ
  end
  begin
     id 2 
     name lfemur
     direction 0.34202 -0.939693 0  
     length 6.69022  
     axis 0 -0 20  XYZ
    dof rx ry rz
    limits (-160.0 20.0)
           (-70.0 70.0)
           (-60.0 70.0)
  end
  begin
     id 3 
     name ltibia
     direction 0.34202 -0.939693 0   
     length 6.50337   
     axis 0 -0 20   XYZ
    dof rx
    limits (-10.0 170.0)
  end
  begin
     id 4 
     name lfoot
     direction 0.158999 -0.435969 0.885805   
     length 2.70564   
     axis -90 -1.13533e-015 20   XYZ
    dof rx rz
    limits (-45.0 90.0)
           (-70.0 20.0)
  end
  begin
     id 5 
     name ltoes
     direction -0.00592919 0.00964381 0.999936   
     length 1.29929   
     axis -90 -1.13533e-015 20   XYZ
    dof rx
    limits (-90.0 20.0)
  end
  begin
     id 6 
     name rhipjoint
     direction -0.414359 -0.700339 0.581234   
     length 2.17212  
     axis 0 -0 0  XYZ 
  end
  begin
     id 7 
     name rfemur
     direction -0.34202 -0.939693 0   
     length 7.17659   
     axis 0 -0 -20   XYZ
    dof rx ry rz
    limits (-160.0 20.0)
           (-70.0 70.0)
           (-70.0 60.0)
  end
  begin
     id 8 
     name rtibia
     direction -0.34202 -0.939693 0   
     length 6.36669   
     axis 0 -0 -20   XYZ
    dof rx
    limits (-10.0 170.0)
 end
 begin
     id 9 
     name rfoot
     direction -0.137064 -0.37658 0.916188   
     length 2.22351  
     axis -90 1.13533e-015 -20   XYZ
    dof rx rz
    limits (-45.0 90.0)
           (-20.0 70.0)
  end
  begin
     id 10 
     name rtoes
     direction -0.000784077 -0.00289101 0.999996   
     length 1.09522   
     axis -90 1.13533e-015 -20   XYZ
    dof rx
    limits (-90.0 20.0)
  end
  begin
     id 11 
     name lowerback
     direction -0.0176242 0.984912 -0.172157   
     length 1.65301   
     axis 0 -0 0   XYZ
    dof rx ry rz
    limits (-20.0 45.0)
           (-30.0 30.0)
           (-30.0 30.0)
  end
  begin
     id 12 
     name upperback
     direction -0.00218128 0.998776 -0.0494072   
     length 1.67776   
     axis 0 -0 0   XYZ
    dof rx ry rz
    limits (-20.0 45.0)
           (-30.0 30.0)
           (-30.0 30.0)
  end
  begin
     id 13 
     name thorax
     direction 0.00544186 0.999658 0.0255711   
     length 1.72293   
     axis 0 -0 0   XYZ
    dof rx ry rz
    limits (-20.0 45.0)
           (-30.0 30.0)
           (-30.0 30.0)
  end
  begin
     id 14 
     name lowerneck
     direction -0.105325 0.983841 0.144785   
     length 2.14226   
     axis 0 -0 0   XYZ
    dof rx ry rz
    limits (-20.0 45.0)
           (-30.0 30.0)
           (-30.0 30.0)
  end
  begin
     id 15 
     name upperneck
     direction 0.0547957 0.988053 -0.144041   
     length 2.17508   
     axis 0 -0 0   XYZ
    dof rx ry rz
    limits (-20.0 45.0)
           (-30.0 30.0)
           (-30.0 30.0)
  end
  begin
     id 16
     name head
     direction 0.0247488 0.997534 -0.0656813  
     length 2.20048  
     axis 0 -0 0   XYZ
    dof rx ry rz
    limits (-20.0 45.0)
           (-30.0 30.0)
           (-30.0 30.0)
  end
  begin
     id 17 
     name lclavicle
     direction 0.820559 0.567247 -0.0701026  
     length 4.09615  
     axis 0 -0 0   XYZ
    dof ry rz
    limits (-20.0 10.0)
           (0.0 20.0)
  end
  begin
     id 18 
     name lhumerus
     direction 0.999977 -0.0067566 -9.96392e-005   
     length 4.59333   
     axis -180 -30 -90   XYZ
    dof rx ry rz
    limits (-60.0 90.0)
           (-90.0 90.0)
           (-90.0 90.0)
  end
  begin
     id 19
     name lradius
     direction 1 -4.48982e-011 -2.53425e-027   
     length 2.81151   
     axis -180 -30 -90   XYZ
    dof rx
    limits (-10.0 170.0)
  end
  begin
     id 20
     name lwrist
     direction 1 -4.48939e-011 -7.39254e-028   
     length 1.40576   
     axis 2.56395e-016 90 90   XYZ
    dof ry
    limits (-180.0 0.0)
 end
  begin
     id 21 
     name lhand
     direction 1 -4.48939e-011 -1.47851e-027   
     length 0.895651   
     axis 9.43423e-016 90 90   XYZ
    dof rx rz
    limits (-90.0 90.0)
           (-45.0 45.0)
  end
  begin
     id 22 
     name lfingers
     direction 1 -4.48978e-011 -2.95702e-027   
     length 0.722097   
     axis 1.88685e-015 90 90   XYZ
    dof rx
    limits (0.0 90.0)
  end
  begin
     id 23
     name lthumb
     direction 0.707107 -6.34931e-011 0.707107   
     length 1.03679   
     axis -90 45 -9.86935e-015   XYZ
    dof rx rz
    limits (-45.0 45.0)
           (-45.0 45.0)
  end
  begin
     id 24 
     name rclavicle
     direction -0.831414 0.553102 -0.0531864   
     length 4.24872  
     axis 0 -0 0   XYZ 
    dof ry rz
    limits (-10.0 20.0)
           (-20.0 0.0)
  end
  begin
     id 25 
     name rhumerus
     direction -0.999916 -0.000939607 0.0129331  
     length 4.74834   
     axis -180 30 90   XYZ
    dof rx ry rz
    limits (-90.0 60.0)
           (-90.0 90.0)
           (-90.0 90.0)
  end
  begin
     id 26 
     name rradius
     direction -1 -4.48956e-011 -1.31752e-027   
     length 2.79907   
     axis -180 30 90   XYZ
    dof rx
    limits (-10.0 170.0)
  end
  begin
     id 27 
     name rwrist
     direction -1 -4.4897e-011 -7.39254e-028   
     length 1.39954   
     axis 2.56395e-016 -90 -90   XYZ
    dof ry
    limits (-180.0 0.0)
  end
  begin
     id 28
     name rhand
     direction -0.999997 -0.00250697 0.000800838   
     length 0.953304   
     axis 9.43423e-016 -90 -90   XYZ
    dof rx rz
    limits (-90.0 90.0)
           (-45.0 45.0)
  end
  begin
     id 29
     name rfingers
     direction -1 -4.48954e-011 -2.95702e-027   
     length 0.763342   
     axis 1.88685e-015 -90 -90   XYZ
    dof rx
    limits (0.0 90.0)
  end
  begin
     id 30
     name rthumb
     direction -0.709701 -0.00217037 0.7045   
     length 1.10115   
     axis -90 -45 9.86935e-015   XYZ
    dof rx rz
    limits (-45.0 45.0)
           (-45.0 45.0)
  end
:hierarchy
  begin
    root lhipjoint rhipjoint lowerback
    lhipjoint lfemur
    lfemur ltibia
    ltibia lfoot
    lfoot ltoes
    rhipjoint rfemur
    rfemur rtibia
    rtibia rfoot
    rfoot rtoes
    lowerback upperback
    upperback thorax
    thorax lowerneck lclavicle rclavicle
    lowerneck upperneck
    upperneck head
    lclavicle lhumerus
    lhumerus lradius
    lradius lwrist
    lwrist lhand lthumb
    lhand lfingers
    rclavicle rhumerus
    rhumerus rradius
    rradius rwrist
    rwrist rhand rthumb
    rhand rfingers
  end

#!OML:ASF G:\ViconDB\ViconDB\414\test\team2\shane.ASF
:FULLY-SPECIFIED
:DEGREES
84
root 7.38299 16.0798 14.5858 -9.06545 8.1238 -5.67938
lowerback 10.2645 -1.77342 3.67832
upperback 3.7437 -1.85247 4.75616
thorax -1.8077 -0.923166 3.08941
lowerneck -18.154 -5.53449 -8.9064
upperneck 20.8527 -6.35057 4.95807
head 10.1009 -3.07589 2.3161
rclavicle 4.17448e-015 -6.36111e-014
rhumerus -52.0932 7.40566 -94.8157
rradius 69.7535
rwrist -328.152
rhand -45.1163 -25.1061
rfingers 7.12502
rthumb -17.8956 -54.3028
lclavicle 4.17448e-015 -6.36111e-014
lhumerus -45.7487 -34.9669 104.026
lradius 65.4322
lwrist -19.4461
lhand -50.4333 4.58589
lfingers 7.12502
lthumb -23.0049 33.233
rfemur -15.1586 -25.7162 26.6154
rtibia 46.8652
rfoot -19.7665 -1.13475
rtoes -5.06873
lfemur 10.9702 1.53497 -1.50976
ltibia 75.0389
lfoot -7.11855 -10.921
ltoes -6.67937
85
root 7.39442 16.0185 15.0523 -9.27692 7.59166 -6.50581
lowerback 10.4206 -1.44656 4.71672
upperback 3.76568 -1.29528 5.05722
thorax -1.89782 -0.640994 2.7616
lowerneck -17.6542 -5.73778 -9.09106
upperneck 20.0195 -6.61123 5.02135
head 9.74199 -3.20759 2.3364
rclavicle -1.09332e-015 -4.77083e-014
rhumerus -48.6815 7.88046 -95.0009
rradius 69.3011
rwrist -327.602
rhand -45.5774 -26.4964
rfingers 7.12502
rthumb -18.3392 -55.6519
lclavicle -1.09332e-015 -4.77083e-014
lhumerus -46.3307 -34.4282 104.096
lradius 62.0633
lwrist -20.7201
lhand -51.0704 5.5397
lfingers 7.12502
lthumb -23.6161 34.1094
rfemur -13.3656 -24.6603 27.0938
rtibia 47.8111
rfoot -22.1657 -1.8233
rtoes -5.12677
lfemur 8.25808 1.81277 -0.369326
ltibia 78.0416
lfoot -8.68247 -11.638
ltoes -6.5947
86
root 7.41706 15.9363 15.4932 -9.2244 7.08637 -7.02065
lowerback 10.3301 -1.19412 5.59045
upperback 3.8249 -0.885204 5.07512
thorax -1.8016 -0.430187 2.23944
lowerneck -17.5929 -5.74263 -8.51008
upperneck 19.505 -6.68686 4.6893
head 9.52032 -3.23461 2.11587
rclavicle -2.98177e-015 -2.14687e-014
rhumerus -44.9787 8.887 -95.6349
rradius 69.0158
rwrist -328.526
rhand -46.1732 -27.5276
rfingers 7.12502
rthumb -18.9123 -56.6282
lclavicle -2.98177e-015 -2.14687e-014
lhumerus -46.7945 -33.2825 103.49
lradius 59.2077
lwrist -21.8493
lhand -52.0284 6.90211
lfingers 7.12502
lthumb -24.5347 35.3503
rfemur -11.3503 -24.674 27.2397
rtibia 48.1257
rfoot -24.4148 -2.63829
rtoes -7.08062
lfemur 5.06323 2.18638 0.166391
ltibia 80.9283
lfoot -10.2752 -11.4829
ltoes -6.66628
87
root 7.45391 15.8816 15.9361 -9.30242 6.43998 -7.31341
lowerback 10.3031 -0.874959 6.28799
upperback 3.89615 -0.399617 5.16187
thorax -1.7123 -0.182416 1.88273
lowerneck -17.5042 -5.73491 -8.35722
upperneck 19.216 -6.66455 4.47417
head 9.38783 -3.23699 2.02161
rclavicle 4.27387e-015 6.36111e-015
rhumerus -41.7319 10.3906 -95.9578
rradius 68.6426
rwrist -327.713
rhand -47.3894 -30.6658
rfingers 7.12502
rthumb -20.0816 -59.648
lclavicle 4.27387e-015 6.36111e-015
lhumerus -47.7707 -32.0549 103.204
lradius 57.0343
lwrist -22.7638
lhand -52.2435 7.4842
lfingers 7.12502
lthumb -24.7409 35.9042
rfemur -8.96129 -24.4393 26.9081
rtibia 47.8432
rfoot -26.2511 -3.03274
rtoes -8.52651
lfemur 2.10976 2.71478 0.276924
ltibia 83.423
lfoot -11.565 -10.7987
ltoes -6.03535
88
root 7.48429 15.8594 16.3911 -9.57875 5.7787 -7.43984
lowerback 10.0447 -0.488041 6.59611
upperback 4.21511 0.0918805 5.27422
thorax -1.22805 0.0769383 1.76825
lowerneck -17.3732 -5.77814 -8.01502
upperneck 18.7769 -6.70502 4.00164
head 9.18391 -3.28295 1.80135
rclavicle -1.17283e-014 -4.45278e-014
rhumerus -38.6331 10.5017 -95.5075
rradius 69.6089
rwrist -325.857
rhand -46.2215 -30.6016
rfingers 7.12502
rthumb -18.9587 -59.6976
lclavicle -1.17283e-014 -4.45278e-014
lhumerus -48.9336 -31.1461 103.001
lradius 55.8144
lwrist -22.9822
lhand -52.3089 7.54191
lfingers 7.12502
lthumb -24.8036 35.9533
rfemur -6.10403 -23.9263 26.3248
rtibia 47.0252
rfoot -27.7087 -3.28742
rtoes -8.41034
lfemur -0.515222 3.30738 0.158502
ltibia 85.2901
lfoot -12.7948 -9.75002
ltoes -5.69942
89
root 7.51008 15.8527 16.8352 -9.88542 5.48353 -7.60565
lowerback 9.97211 -0.233447 6.92698
upperback 4.45749 0.43272 5.31813
thorax -0.924338 0.259606 1.59343
lowerneck -17.3541 -5.82558 -7.7454
upperneck 18.6108 -6.80294 3.83924
head 9.1126 -3.32653 1.68975
rclavicle -8.64713e-015 -9.38264e-014
rhumerus -36.2747 11.2763 -95.8519
rradius 71.3992
rwrist -327.464
rhand -47.2525 -31.3393
rfingers 7.12502
rthumb -19.95 -60.3353
lclavicle -8.64713e-015 -9.38264e-014
lhumerus -50.5213 -30.5339 102.783
lradius 55.5198
lwrist -23.0848
lhand -52.6123 8.38539
lfingers 7.12502
lthumb -25.0943 36.7565
rfemur -3.08425 -23.7589 25.8179
rtibia 45.7049
rfoot -28.8204 -3.8749
rtoes -9.08334
lfemur -3.32308 3.41442 -0.070173
ltibia 86.5947
lfoot -13.784 -8.83384
ltoes -5.59805
